<svg xmlns="http://www.w3.org/2000/svg" xmlns:xlink="http://www.w3.org/1999/xlink" width="0" height="0" style="display:none;"><symbol viewBox="0 0 1000 1000" id="icon-account--circle"><path d="M500 800c-104 0-196-53-250-133 1-84 167-130 250-130s249 46 250 130c-54 80-146 133-250 133m0-592c69 0 125 56 125 125s-56 125-125 125-125-56-125-125 56-125 125-125m0-125C270 83 83 270 83 500s187 417 417 417 417-187 417-417S729 83 500 83z"></path></symbol><symbol viewBox="0 0 1000 1000" id="icon-add"><path d="M813 562H563v250H438V562H188V437h250V187h125v250h250v125z"></path></symbol><symbol viewBox="0 0 1000 1000" id="icon-award"><path d="M813 187V62H188v125H0v125c0 104 84 188 188 188 19 0 38-3 56-9 45 65 114 111 194 128v193h-63c-69 0-125 57-125 126h500c0-69-56-126-125-126h-62V619c79-17 148-63 193-128 18 6 37 9 57 9 103 0 187-84 187-188V187H813zM188 426c-63 0-114-51-114-114v-62h114v62c0 40 7 77 20 112-7 1-13 2-20 2zm738-114c0 63-51 114-113 114-7 0-14-1-21-2 13-35 21-72 21-112v-62h113v62z"></path></symbol><symbol viewBox="0 0 1000 1000" id="icon-balloon"><path d="M763.672 600.137c63.965-90.528 90.996-198.496 76.172-304.063C813.402 108.27 639.719-22.539 451.914 3.906c-187.5 26.348-318.633 200.352-292.285 387.852 14.785 105.254 70.547 201.484 156.973 270.976 48.007 38.438 102.168 65.43 153.554 77.5 8.067 1.938 13.215 9.848 11.719 18.008l-9.512 51.524a31.817 31.817 0 0 0 2.89 20.644 31.247 31.247 0 0 0 27.735 16.817 29.546 29.546 0 0 0 4.356-.313l34.785-4.883a3.905 3.905 0 0 1 4.082 2.227C578.867 915.176 635 968.965 706.66 997.305a31.251 31.251 0 0 0 41.016-18.848c5.526-15.977-3.204-33.34-18.907-39.61A231.571 231.571 0 0 1 612.95 837.52a3.907 3.907 0 0 1 2.831-5.86l14.453-1.953a32.32 32.32 0 0 0 19.688-10.215 31.25 31.25 0 0 0 4.668-34.765l-23.555-47.325c-3.719-7.468-.914-16.539 6.367-20.605 46.075-25.723 90.723-66.406 126.27-116.66Zm-302.54 32.773c-3.933 0-7.827-.742-11.484-2.187-80.586-31.875-149.023-102.93-178.613-185.43a31.242 31.242 0 0 1 5.367-31.004 31.25 31.25 0 0 1 53.461 9.91c28.32 78.985 92.325 128.457 142.774 148.438 13.957 5.515 22.023 20.176 19.21 34.918-2.812 14.742-15.706 25.402-30.714 25.394Zm0 0"></path></symbol><symbol viewBox="0 0 1000 1000" id="icon-block"><path d="M500 833c92 0 171-33 238-100s100-146 100-237c0-79-25-146-71-204L296 762c58 50 125 71 204 71zM167 500c0 79 25 146 71 204l470-471c-58-45-129-70-204-70-92 0-171 33-237 100S167 408 167 500zM500 83c117 0 213 42 296 121s121 179 121 296-42 212-121 296c-83 83-179 121-296 121s-212-42-296-121C121 712 83 617 83 500s42-213 121-296S383 83 500 83z"></path></symbol><symbol viewBox="0 0 1000 1000" id="icon-bold"><path d="M563 687c25 0 25-6 37-12 13-13 19-31 19-44 0-19-6-31-19-50-12-12-25-19-50-19H375v125h188zM375 281v156h163c18 0 37-12 50-31s12-25 12-44c0-18-6-31-19-43s-31-7-43-7H375v-31zm275 194c63 31 100 81 100 156 0 50-19 94-44 125-31 31-75 56-118 56H250V187h300c50 0 94 13 125 50s50 75 50 125c6 44-25 82-75 113z"></path></symbol><symbol viewBox="0 0 1000 1000" id="icon-book"><path class="cls-1" d="M0 48.5v873A48.65 48.65 0 0 0 48.5 970h97V0h-97A48.64 48.64 0 0 0 0 48.5zM679 0h-97v388l-97-97-97 97V0H194v970h485a48.65 48.65 0 0 0 48.5-48.5v-873A48.64 48.64 0 0 0 679 0z"></path></symbol><symbol viewBox="0 0 1000 1000" id="icon-calendar"><path d="M813 875H188V375h625v500zM688 62v63H313V62h-63v63h-62c-44 0-63 19-63 62v688c0 44 19 63 63 63h625c43 0 62-19 62-63V187c0-43-37-62-81-62h-44V62h-62zm0 500H500v188h188V562z"></path></symbol><symbol viewBox="0 0 1000 1000" id="icon-check--circle"><path d="M500 81C269 81 81 269 81 500s188 419 419 419 419-188 419-419S731 81 500 81zm-69 638L213 500l87-88 131 132 263-263 87 88-350 350z"></path></symbol><symbol viewBox="0 0 1000 1000" id="icon-check"><path d="m375 625 417-417 83 84-500 500-250-250 83-84 167 167z"></path></symbol><symbol viewBox="0 0 1000 1000" id="icon-chevron_left"><path d="M583 250 333 500l250 250 84-83-167-167 167-167-84-83z"></path></symbol><symbol viewBox="0 0 1000 1000" id="icon-chevron_right"><path d="m417 250 250 250-250 250-84-83 167-167-167-167 84-83z"></path></symbol><symbol viewBox="0 0 1000 1000" id="icon-close--circle"><path d="M500 81c231 0 419 188 419 419S731 919 500 919 81 731 81 500 269 81 500 81zm219 550L588 500l131-131-88-88-131 131-131-131-88 88 132 131-132 131 88 88 131-132 131 132 88-88z"></path></symbol><symbol viewBox="0 0 1000 1000" id="icon-close"><path d="M833 250 583 500l250 250-83 83-250-250-250 250-83-83 250-250-250-250 83-83 250 250 250-250 83 83z"></path></symbol><symbol viewBox="0 0 1000 1000" id="icon-code"><path d="m563 719 93 93 313-312-313-313-93 94 218 219zM438 281l-94-94L31 500l313 312 94-93-219-219z"></path></symbol><symbol viewBox="0 0 1000 1000" id="icon-comment--multiple"><path d="M750 125H125v437H63V125c0-38 25-63 62-63h625v63zm188 125v500c0 37-25 62-63 62H563L444 931c-6 7-13 7-19 7h-19c-18 0-31-13-31-32v-94H250c-37 0-62-25-62-62V250c0-38 31-63 62-63h625c38 0 63 32 63 63zm-63 0H250v500h188v100l100-100h337V250z"></path></symbol><symbol viewBox="0 0 1000 1000" id="icon-comment--text"><path d="M813 125H188c-32 0-63 25-63 56v500c0 38 31 69 63 69h125v87c0 19 12 38 31 38h19c6 0 18 0 18-6l119-119h313c37 0 62-31 62-69V181c0-31-25-56-62-56zm0 562H475l-100 94v-94H188V187h625v500zm-63-312H250v-63h500v63zM625 562H250v-62h375v62z"></path></symbol><symbol viewBox="0 0 1000 1000" id="icon-comparison"><path d="M300 400H50a50.15 50.15 0 0 0-50 50v100a50.15 50.15 0 0 0 50 50h250a50.15 50.15 0 0 0 50-50V450a50.15 50.15 0 0 0-50-50zm650-300H700a50.15 50.15 0 0 0-50 50v100a50.15 50.15 0 0 0 50 50h250a50.15 50.15 0 0 0 50-50V150a50.15 50.15 0 0 0-50-50zm0 150H700V150h250zM300 700H50a50.15 50.15 0 0 0-50 50v100a50.15 50.15 0 0 0 50 50h250a50.15 50.15 0 0 0 50-50V750a50.15 50.15 0 0 0-50-50zm0-600H50a50.15 50.15 0 0 0-50 50v100a50.15 50.15 0 0 0 50 50h250a50.15 50.15 0 0 0 50-50V150a50.15 50.15 0 0 0-50-50zM500 0a50.15 50.15 0 0 0-50 50v900a50.15 50.15 0 0 0 50 50 50.15 50.15 0 0 0 50-50V50a50.15 50.15 0 0 0-50-50zm450 700H700a50.15 50.15 0 0 0-50 50v100a50.15 50.15 0 0 0 50 50h250a50.15 50.15 0 0 0 50-50V750a50.15 50.15 0 0 0-50-50zm0 150H700V750h250zm0-450H700a50.15 50.15 0 0 0-50 50v100a50.15 50.15 0 0 0 50 50h250a50.15 50.15 0 0 0 50-50V450a50.15 50.15 0 0 0-50-50zm0 150H700V450h250z"></path></symbol><symbol viewBox="0 0 1000 1000" id="icon-copy"><path d="M623 254V8H192L8 192v554h369v246h615V254H623zM192 95v97H95l97-97zM69 685V254h185V69h308v185L377 438v247H69zm493-344v97h-98l98-97zm369 590H439V500h184V315h308v616z"></path></symbol><symbol viewBox="0 0 1000 1000" id="icon-crown"><path d="m125 437 63 250h625l62-250c31 0 63-25 63-62s-32-56-63-56-56 25-56 56v19l-131 87-157-250c13-12 25-31 25-50 0-31-25-56-56-56s-56 25-56 56c0 19 12 38 25 50L313 481l-132-87v-19c0-31-25-56-56-56s-62 25-62 56 31 62 62 62zm63 313h625v125H188V750z"></path></symbol><symbol viewBox="0 0 1000 1000" id="icon-debug"><path d="M583 500v-83H417v83h166zm0 167v-84H417v84h166zm250-334v84h-87c4 0 4 33 4 41v42h83v83h-83v42c0 8 0 42-4 42h87v83H717c-21 42-55 67-92 92-38 21-79 33-125 33s-88-12-125-33-67-50-92-92H167v-83h87c-4 0-4-34-4-42v-42h-83v-83h83v-42c0-8 0-41 4-41h-87v-84h116c21-41 46-58 75-83l-66-67 58-58 92 92c20-5 37-5 58-5s37 0 58 5l92-92 58 58-66 67c33 21 58 42 75 83h116z"></path></symbol><symbol viewBox="0 0 1000 1000" id="icon-delete"><path d="M813 187v63H188v-63h168l44-62h206l44 62h163zm-63 625V312H250v500c0 38 25 63 63 63h375c37 0 62-31 62-63z"></path></symbol><symbol viewBox="0 0 1000 1000" id="icon-download"><path d="M188 875h625v-63H188v63zm625-438H625V125H375v312H188l312 313 313-313z"></path></symbol><symbol viewBox="0 0 1000 1000" id="icon-edit"><path d="m863 296-75 75-155-154 75-75c9-9 17-13 30-13s20 4 29 13l96 95c8 9 12 17 12 30 0 8-4 20-12 29zM125 717l458-459 155 159-459 458H121V717z"></path></symbol><symbol viewBox="0 0 1000 1000" id="icon-emoji"><path d="M475 0c262.34 0 475 212.66 475 475S737.34 950 475 950 0 737.34 0 475 212.66 0 475 0zm0 95C265.13 95 95 265.13 95 475s170.13 380 380 380 380-170.13 380-380S684.87 95 475 95zM285 475l.71 10.22C295.38 589.93 376.43 665 475 665c101.75 0 184.83-80 189.77-180.52L665 475h95l-.6 11.31C748.34 643.74 625.25 760 475 760c-153.82 0-279.18-121.86-284.8-274.32L190 475zm71.25-190A71.25 71.25 0 1 1 285 356.25 71.25 71.25 0 0 1 356.25 285zm237.5 0a71.25 71.25 0 1 1-71.25 71.25A71.25 71.25 0 0 1 593.75 285z"></path></symbol><symbol viewBox="0 0 1000 1000" id="icon-enlarge"><path d="M875 125H575l113 112-150 150 75 75 150-150 112 113V125zm0 750V575L763 687 613 537l-75 75 150 150-113 113h300zm-750 0h300L313 762l150-150-75-75-150 150-113-112v300zm0-750v300l113-113 150 150 75-75-150-150 112-112H125z"></path></symbol><symbol viewBox="0 0 1000 1000" id="icon-erase"><path d="M850 196 692 75c-43-33-106-25-140 18L132 638c-34 44-25 107 18 140l158 122c43 33 107 25 140-18l420-545c34-44 26-107-18-141zM427 811l-26 34c-8 10-20 15-32 15-7 0-16-1-25-8L187 731c-9-7-14-16-15-27s1-21 7-29l27-34c8-10 20-16 32-16 6 0 16 2 25 9l157 121c9 6 14 16 15 26 2 11-1 21-8 30z"></path></symbol><symbol viewBox="0 0 1000 1000" id="icon-expand_less"><path d="m250 583 250-250 250 250-83 84-167-167-167 167-83-84z"></path></symbol><symbol viewBox="0 0 1000 1000" id="icon-expand_more"><path d="m250 417 250 250 250-250-83-84-167 167-167-167-83 84z"></path></symbol><symbol viewBox="0 0 1000 1000" id="icon-facebook"><path d="M792 167v125h-84c-23 0-41 18-41 41v84h125v125H667v291H542V542h-84V417h84V312c0-80 65-145 146-145zm41-84H167c-46 0-84 38-84 84v666c0 46 38 84 84 84h666c46 0 84-38 84-84V167c0-47-38-84-84-84z"></path></symbol><symbol viewBox="0 0 1000 1000" id="icon-feeling-lucky"><path d="M500 1000c276 0 500-224 500-500S776 0 500 0 0 224 0 500s224 500 500 500zm0-906c224 0 406 182 406 406S724 906 500 906 94 724 94 500 276 94 500 94zm281 156c17 0 32 14 32 31v94c0 34-29 62-63 62H625c-34 0-62-28-62-62H438c0 34-29 62-63 62H250c-34 0-62-28-62-62v-94c0-17 14-31 31-31h187c17 0 32 14 32 31v31h125v-31c0-17 14-31 31-31h187zM500 750c91 0 171-49 214-121l54 32c-55 91-154 151-268 151-47 0-92-10-132-29l32-54c31 13 64 21 100 21z"></path></symbol><symbol viewBox="0 0 1000 1000" id="icon-file"><path d="M813 875H188V750l187-313 257 313 181-125v250zm0-406c0 51-42 93-94 93s-94-42-94-93 42-94 94-94 94 42 94 94zm83-245c-21-30-52-65-85-98s-68-63-97-85C663 4 639 0 625 0H141C98 0 63 35 63 78v844c0 43 35 78 78 78h718c44 0 79-35 79-78V312c0-14-5-38-42-88zm-129-54c30 30 54 58 71 80H688V100c22 17 49 41 79 70zm108 752c0 8-7 16-16 16H141c-9 0-16-8-16-16V78c0-8 7-16 16-16h484v219c0 17 14 31 31 31h219v610z"></path></symbol><symbol viewBox="0 0 1000 1000" id="icon-filter"><path d="M500 0C224 0 0 70 0 156v94l375 375v313c0 34 56 62 125 62s125-28 125-62V625l375-375v-94C1000 70 776 0 500 0zM92 136c24-14 56-26 95-37 86-24 197-37 313-37s227 13 313 37c39 11 71 23 95 37 15 8 24 16 28 20-4 5-13 12-28 21-24 13-56 26-95 36-86 24-197 37-313 37s-227-13-313-37c-39-10-71-23-95-36-15-9-24-16-27-21 3-4 12-12 27-20z"></path></symbol><symbol viewBox="0 0 1000 1000" id="icon-fingerprint"><path d="M531.4 0c17.5 3.8 35.4 4.2 53 7.6C706.6 31 805.4 92.1 880.5 191c46.4 61.1 75.8 130 86.7 205.7 9.3 64.7 8.5 130 6.9 195.3-1.4 56.5-7.9 112.4-17.9 167.9-4.6 25.5-25.1 41-49.7 36.7-23.7-4.2-37.7-26-32.9-51.2 18.8-98.4 19.8-197.6 14.6-297.1-2.6-49.4-13.7-96.7-35.6-141-58.8-119.4-153.7-194.2-284.8-216.7C415 64.4 290.1 117.7 191.6 235.7c-12.3 14.7-26.7 22-45.4 17.7-30.6-7.1-41.9-42.8-21.8-68.3C152.6 149.3 185 117.7 222 91c68-49 143.5-78.6 226.7-88.6 5.4-.7 11.1.9 16.2-2.4h66.5zm272.2 523.2c2.7 111.7-11.9 220.9-49 326.6-11.2 32-24.4 63.1-39.6 93.4-11.3 22.4-35.4 31.1-56.8 20.6s-29.7-35.1-18.5-57.5c34.2-68.3 57-140.3 69.5-215.6 9.4-57.1 12.1-114.7 10.3-172.5-1-32.5 1.4-65.5-6.9-97.3C690 335 634 282 548.5 260.5c-49.4-12.4-97.6-5.9-143.7 15.8-23.9 11.3-48.5 3.3-58.7-18.9-10.2-22-.9-45.1 22.8-56.7 175.9-86.4 391.8 21.1 428.3 213.4 6.7 36 4.8 72.7 6.4 109.1zm-420.6-2c.9-27.3-2.2-54.8 3.8-81.9 12.8-58.5 64.7-98.9 125-97.2 60 1.7 113.2 45.8 121 103.8 6.1 45.2 7.6 90.9 5.9 136.6-.9 23.7-20.9 40.9-44.5 39.8-22.3-1-39.8-19.7-39.2-43.1 1.1-38.5-2.3-76.9-4-115.3-.9-18.8-18.1-35.7-37.6-37.5-22.2-2.1-39.1 9.5-44.4 30.9-1.4 5.6-1.9 11.6-2 17.4-.2 28.7.2 57.4-.3 86.1-2.6 145.6-69.9 250.1-200.7 313.8-12.6 6.1-25.6 11.3-38.7 16.1-22.8 8.3-46-2.5-54.1-24.6-8-21.6 2.2-45 24.6-53.5 44-16.8 84.6-38.9 117.6-73.2 38.8-40.3 58.9-89 65.5-143.9 3-24.8 1.5-49.6 2.1-74.3zm61.9 478.8c-9.3-.5-21.9-7.8-29.4-22.9-7.9-15.8-6.1-31.1 4.8-44.8C447.5 898.4 471 862.1 490 823c16-32.8 28.5-66.9 37.9-102.2 5.2-19.6 20.3-31.8 39.1-32.7 18.4-.9 35 10.4 41.5 28.2 3.2 8.9 2.8 17.8.4 26.9-23.5 88-63.9 167.4-120.7 238.6-9.4 11.4-20.6 18.7-43.3 18.2zM25.1 486.5c-1-66.2 9.5-130.3 33.4-192.1 7.5-19.5 23-29.2 43.3-28.1 17.1.9 32.6 13.9 37 31.3 2 8 2.1 16.3-1 24-24.6 61.3-30.8 125.4-28.7 190.7.3 9.4.1 18.9-.1 28.4-.4 25-17.2 42.7-40.9 43.1-23.9.4-42.2-17.4-42.8-42.5-.5-18.3-.2-36.5-.2-54.8zM279 565.1c-1.4 49.9-13.5 95.4-53.5 129.2-23.3 19.7-50.6 31.7-79.3 40.9-15.2 4.8-30.5 9.2-45.9 13.4-23.9 6.6-46.2-5.8-52.8-29.1-6.3-22.2 6.5-44.8 29.9-51.7 20.9-6.2 42-11.4 62.3-19.4 39.7-15.6 54.4-36.8 55.3-79.3.2-7.8-.6-15.6 1.4-23.3 5.1-20.2 24.7-34.7 44.2-32.4 22.6 2.7 38.2 19.6 38.4 41.9v9.8zm35.6-313c13.9.3 27 8.8 33.9 24.7 7.2 16.7 4.4 32.8-8.2 46.2-20.1 21.4-36.1 45.3-46.8 72.7-6.4 16.4-10.8 33.4-12.8 51-2.8 23.7-24.2 41.2-46.2 38-24.6-3.5-40.4-24.4-37.1-48.8 8.8-64.6 35.7-120.7 80-168.4 10.5-11.2 19.8-15.5 37.2-15.4z"></path></symbol><symbol viewBox="0 0 1000 1000" id="icon-flag"><path d="M581 187h232v438H544l-38-125H250v375h-62V125h356l37 62z"></path></symbol><symbol viewBox="0 0 1000 1000" id="icon-formula"><path d="M750 187v125H456l207 188-207 187h294v125H250v-62l250-250-250-250v-63h500z"></path></symbol><symbol viewBox="0 0 1000 1000" id="icon-github"><path d="M500 83C270 83 83 270 83 500c0 184 120 340 285 396 21 3 28-10 28-21v-70c-116 25-140-56-140-56-19-49-46-62-46-62-38-25 3-25 3-25 41 3 63 43 63 43 37 64 98 45 122 35 3-27 14-45 26-56-93-10-190-46-190-205 0-46 16-83 43-113-4-10-19-54 4-110 0 0 35-11 115 43 33-9 69-14 104-14s71 5 104 14c80-54 115-43 115-43 23 56 8 100 4 110 27 30 43 67 43 113 0 159-98 194-191 205 15 13 29 38 29 77v114c0 11 7 25 28 21 166-56 285-212 285-396 0-230-187-417-417-417z"></path></symbol><symbol viewBox="0 0 1000 1000" id="icon-global"><path d="M746 725c-11-34-42-58-79-58h-42V542c0-23-19-42-42-42H333v-83h84c23 0 41-19 41-42v-83h84c46 0 83-38 83-84v-17c122 49 208 169 208 309 0 87-33 165-87 225zM458 830c-164-20-291-160-291-330 0-26 3-51 8-75l200 200v42c0 45 38 83 83 83zm42-747C270 83 83 270 83 500s187 417 417 417 417-187 417-417S730 83 500 83z"></path></symbol><symbol viewBox="0 0 1000 1000" id="icon-google_plus"><path d="M958 458h-83v-83h-83v83h-84v84h84v83h83v-83h83zm-625 0v100h167c-8 42-50 125-167 125-100 0-179-83-179-183s79-183 179-183c59 0 96 25 117 45l79-75c-50-50-116-79-196-79-162 0-291 129-291 292 0 162 129 292 291 292 167 0 280-117 280-284 0-21 0-33-5-50H333z"></path></symbol><symbol viewBox="0 0 1000 1000" id="icon-heart--outline"><path d="m504 773-4 4-5-4C298 593 167 475 167 354c0-83 62-146 146-146 64 0 126 42 148 99h78c22-57 84-99 149-99 83 0 145 63 145 146 0 121-130 239-329 419zm184-648c-73 0-143 34-188 87-45-53-115-87-187-87-129 0-230 100-230 229 0 157 142 286 357 481l60 55 60-55c215-195 357-324 357-481 0-129-101-229-229-229z"></path></symbol><symbol viewBox="0 0 1000 1000" id="icon-heart"><path d="m500 890-60-55C225 640 83 511 83 354c0-129 101-229 230-229 72 0 142 34 187 87 45-53 115-87 188-87 128 0 229 100 229 229 0 157-142 286-357 481l-60 55z"></path></symbol><symbol viewBox="0 0 1000 1000" id="icon-help"><path d="M500 250c46 0 83 17 117 50s50 71 50 117c0 33-21 70-63 108s-62 58-62 100h-84c0-42 9-54 21-79 13-21 29-38 42-46 17-8 29-21 42-38 12-12 20-29 20-50s-8-41-25-58c-16-17-37-25-58-25s-42 8-58 25c-17 17-25 17-25 58h-84c0-41 17-83 50-116 34-29 71-46 117-46zm0 583c92 0 171-33 233-100 67-66 100-146 100-233 0-92-33-171-100-233S588 167 500 167s-171 33-233 100-100 145-100 233c0 92 33 171 100 233 62 67 141 100 233 100zm0-750c117 0 213 42 296 121s121 179 121 296-42 212-121 296-179 121-296 121-212-42-296-121S83 617 83 500s42-213 121-296S383 83 500 83zm-42 667v-83h84v83h-84z"></path></symbol><symbol viewBox="0 0 1000 1000" id="icon-help2"><path d="M500 125c69 0 125 25 175 75s75 106 75 175c0 50-31 106-94 162s-93 88-93 150H438c0-62 12-81 31-118 19-32 44-57 62-69 25-13 44-31 63-56 19-19 31-44 31-75s-12-63-37-88-57-37-88-37-62 18-87 43-38 25-38 88H250c0-63 25-125 75-175 50-44 106-75 175-75zm-62 750V750h125v125H438z"></path></symbol><symbol viewBox="0 0 1000 1000" id="icon-homework"><path d="M993 487 743 174c-6-7-15-12-24-12H281c-9 0-18 5-24 12L7 487c-5 5-7 12-7 19v282c0 34 28 62 63 62h875c34 0 62-28 62-62V506c0-7-2-14-7-19zm-55 50H719L594 662H406L281 537H63v-20l233-292h408l234 292v20zM719 350H281c-17 0-31-14-31-31s14-32 31-32h438c17 0 31 14 31 32s-14 31-31 31zm62 125H219c-17 0-31-14-31-31s14-32 31-32h562c18 0 32 14 32 32s-14 31-32 31z"></path></symbol><symbol viewBox="0 0 1000 1000" id="icon-hourglass"><path d="M250 62h500v269L581 500l169 169v269H250V669l169-169-169-169V62zm419 625L500 519 331 687h338zM313 312h375V125H313v187z"></path></symbol><symbol viewBox="0 0 1000 1000" id="icon-info--circle"><path d="M563 375H438V250h125v125zm0 375H438V437h125v313zM500 81C269 81 81 269 81 500s188 419 419 419 419-188 419-419S731 81 500 81z"></path></symbol><symbol viewBox="0 0 1000 1000" id="icon-info"><path d="M331 500h-81V375h375v394c0 18 0 25 6 31 13 12 75 12 94 12h25v126H250V812h81c13 0 25 0 32-12 12-6 12-13 12-31V550c0-19 0-25-12-38-7-12-13-12-32-12zm57-338c0-75 37-112 112-112s113 37 113 112-44 113-113 113c-75 0-112-38-112-113z"></path></symbol><symbol viewBox="0 0 1000 1000" id="icon-insert--image"><path d="M356 562 213 750h581L606 500 463 687c-7 0-107-125-107-125zm519 232c0 18-6 43-25 56s-37 25-56 25H206c-18 0-43-6-56-25s-25-38-25-56V206c0-19 6-37 25-56s38-25 56-25h582c18 0 43 6 56 25s31 37 31 56v588z"></path></symbol><symbol viewBox="0 0 1000 1000" id="icon-insert--link"><path d="M708 292c42 0 105 20 146 62s63 92 63 146c0 58-21 104-63 146s-87 62-146 62H542v-83h166c34 0 67-13 92-38s33-50 33-87c0-33-8-63-33-88s-54-37-92-37H542v-83h166zM333 542v-84h334v84H333zm-166-42c0 33 8 62 33 87s54 38 92 38h166v83H292c-59 0-104-21-146-62s-63-92-63-146c0-58 21-104 63-146s87-62 146-62h166v83H292c-34 0-67 12-92 37s-33 55-33 88z"></path></symbol><symbol viewBox="0 0 1000 1000" id="icon-italic"><path d="M438 187h312v125H625L500 687h63v125H250V687h125l125-375h-62V187z"></path></symbol><symbol viewBox="0 0 1000 1000" id="icon-lab"><path d="M934 786 625 271V62h31c17 0 32-14 32-31S673 0 656 0H344c-17 0-31 14-31 31s14 31 31 31h31v209L66 786c-71 118-16 214 122 214h625c137 0 192-96 121-214zM235 625l203-337V62h125v226l202 337H235z"></path></symbol><symbol viewBox="0 0 1000 1000" id="icon-link--external"><path d="M188 62v750h750V62H188zm687 688H250V125h625v625zM125 875V219l-62-63v782h781l-63-63H125zm219-625 156 156-187 188 93 93 188-187 156 156V250z"></path></symbol><symbol viewBox="0 0 1000 1000" id="icon-link"><path d="M442 604c-4 0-13 0-17-4s-8-4-17-8c-20-21-33-42-45-67-9-25-17-50-17-75s4-50 17-75c8-25 25-46 45-67l159-158c20-21 41-33 66-46 25-8 50-17 80-17s54 5 79 17c25 8 46 25 66 46s34 42 46 67c9 25 17 50 17 75s-4 50-17 75c-8 25-25 45-46 66l-75 71c-8 8-16 13-29 13s-21-5-29-13-12-17-12-29 4-21 12-29l75-75c21-21 33-50 33-84s-12-58-33-83c-12-12-25-21-37-25s-30-8-46-8c-17 0-29 4-46 8-13 4-25 13-38 25L475 362c-21 21-33 50-33 84s12 58 33 83c8 8 13 17 13 29s-5 21-13 34c-4 4-8 8-17 8-8 4-12 4-16 4zM288 917c-25 0-55-4-80-17-25-8-45-25-66-42-21-21-34-41-46-66s-17-50-17-75 4-50 17-75 25-46 46-67l75-75c8-8 16-13 29-13s21 5 29 13 13 17 13 29-5 21-13 29l-75 75c-21 21-33 50-33 84s12 58 33 83c13 12 25 21 38 25s29 8 45 8c17 0 30-4 46-8s25-13 38-25l158-158c21-21 33-50 33-84s-12-58-33-83c-8-8-13-17-13-29s5-21 13-29c8-9 17-13 29-13s21 4 33 13c21 20 34 41 46 66 9 25 17 50 17 75s-4 50-17 75c-8 25-25 46-46 67L429 858c-21 21-42 34-67 42-25 13-50 17-75 17z"></path></symbol><symbol viewBox="0 0 1000 1000" id="icon-linkedin"><path d="M813 812H688V575c0-38-25-69-63-69s-62 31-62 69v237H438V437h125v25c0-37 62-62 100-62 87 0 150 75 150 156v256zM256 337c-43 0-81-37-81-81s38-81 81-81 82 37 82 81-38 81-82 81zm57 475H188V437h125v375zM856 62H144c-44 0-81 38-81 82v706c0 50 37 88 81 88h706c50 0 81-38 81-82V144c7-44-31-82-75-82z"></path></symbol><symbol viewBox="0 0 1000 1000" id="icon-logout"><path d="M750 625V500H438V375h312V250l188 187zm-62-63v250H375v188L0 812V0h688v312h-63V62H125l250 125v563h250V562z"></path></symbol><symbol viewBox="0 0 1000 1000" id="icon-mail"><path d="M875 325v-88L500 456 125 237v88l375 219 375-219zm-25-200c25 0 44 19 63 37s25 57 25 75v525c0 25-13 57-25 75-19 19-38 38-63 38H150c-25 0-44-19-62-38s-25-56-25-75V237c0-25 12-56 25-75s43-37 62-37h700z"></path></symbol><symbol viewBox="0 0 1000 1000" id="icon-ordered_list"><path d="M313 562V437h625v125H313zm0 250V687h625v125H313zm0-625h625v125H313V187zM81 456v-44h125v38l-75 87h75v44H81v-37l75-88H81zm44-125V206H81v-44h82v169h-38zM81 706v-44h125v169H81v-44h82v-18h-44v-44h44v-19H81z"></path></symbol><symbol id="icon-pie-chart"><path d="M437 542c-1.8-3.2-2.4-7-1.7-10.6l76.3-405c1.7-9-4.5-17.6-13.5-18.9-20.8-3.1-42.1-4.8-63.8-4.8C187.6 102.7-11 308.3.5 557.5c10.4 226 196.4 407.9 422.6 413.6 64.3 1.6 125.6-10.7 181-34.3 20.6-8.7 28.8-33.6 18.1-53.3L437 542zm533.8-161.7c-6.3-16.2-25-23.7-40.8-16.3L594.2 523.5c-15.5 7.4-21.6 26.2-13.5 41.2l177.2 326.8c8.3 15.4 28 20.3 42.7 10.8C920.6 825 1000 690.3 1000 537c0-55.3-10.4-108.1-29.2-156.7zM560.6 432 891 275.1c11.8-5.6 16.7-20.1 10.4-31.6C843.7 138 743.4 59 623.7 29.6c-12.7-3.1-25.3 5.3-27.7 18.1l-67.7 359.4c-3.5 18.4 15.4 32.9 32.3 24.9z"></path></symbol><symbol viewBox="0 0 1000 1000" id="icon-platform--android"><path d="M875 375c-34 0-62 28-62 62v250c0 35 28 63 62 63s63-28 63-63V437c0-34-29-62-63-62zm-750 0c-34 0-62 28-62 62v250c0 35 28 63 62 63s63-28 63-63V437c0-34-29-62-63-62zm94 344c0 52 42 93 94 93v126c0 34 28 62 62 62s63-28 63-62V812h125v126c0 34 28 62 62 62s63-28 63-62V812c51 0 93-41 93-93V375H219v344zm561-407c-10-85-58-159-127-204l31-63c8-15 2-34-14-42s-34-1-42 14l-31 63-8-3c-28-10-58-15-89-15s-61 5-89 15l-8 3-31-63c-8-15-27-21-42-14s-22 27-14 42l31 63c-69 44-117 119-126 204v32h560v-32h-1zm-374-62c-17 0-31-14-31-31s14-31 31-32c18 1 32 14 32 32s-14 31-32 31zm188 0c-17 0-31-14-31-31s13-31 31-32c17 1 31 14 31 32s-14 31-31 31z"></path></symbol><symbol viewBox="0 0 1000 1000" id="icon-platform--chromeos"><path d="M252 436 109 188C201 73 342 0 500 0c183 0 343 98 430 245H522c-7-1-14-1-22-1-119 0-219 82-248 192zm427-119h287c22 57 34 119 34 183 0 274-221 497-494 500l204-354c29-42 46-92 46-146 0-72-30-136-77-183zM318 500c0-100 82-182 182-182s182 82 182 182-82 182-182 182-182-82-182-182zm251 246L425 994C185 958 0 751 0 500c0-89 23-173 64-245l204 353c41 87 130 148 232 148 24 0 47-3 69-9z"></path></symbol><symbol viewBox="0 0 1000 1000" id="icon-platform--ios"><path d="M780 812c-35 52-72 103-127 103-56 2-74-32-138-32-63 0-83 32-136 34-54 2-96-55-131-106-71-103-125-292-52-420 36-63 101-103 172-104 53-1 104 36 137 36 32 0 94-45 158-38 27 1 103 11 152 82-4 3-90 54-90 159 2 126 111 168 112 169-1 2-17 60-57 117zM542 146c30-35 81-61 122-63 6 49-14 98-43 133-29 36-76 63-123 59-6-48 17-98 44-129z"></path></symbol><symbol viewBox="0 0 1000 1000" id="icon-platform--linux"><path d="M554 720c-80 37-154 36-204 33-60-5-108-21-129-35-13-9-30-6-39 7s-6 31 8 40c33 23 93 40 156 44 11 1 22 2 35 2 54 0 123-6 197-40 15-7 21-24 14-38s-23-20-38-14zm316-42c3-247 28-714-444-676C-41 40 83 532 76 697c-6 88-35 194-76 303h126c13-46 23-91 27-135 7 5 15 11 24 15 14 9 26 20 39 32 30 27 64 58 131 62h13c67 0 113-29 150-53 18-11 33-21 48-26 41-13 76-33 103-60l12-12c15 54 35 116 58 177h269c-65-100-131-198-130-323zM121 543c-4-80 34-148 86-151s98 60 103 140c0 5 0 9 1 13-17 4-32 10-45 17v-1c-5-46-29-81-55-78s-43 43-38 89c2 20 7 38 15 51-2 2-7 6-14 11-5 3-11 7-18 13-19-26-32-62-35-104zm529 199c-2 43-58 83-109 99h-1c-21 7-40 19-60 32-34 22-69 44-120 44h-10c-46-3-68-22-96-47-14-14-29-27-48-39h-1c-42-23-67-53-69-78-1-13 5-24 17-33 26-19 43-32 55-41s16-12 19-14c2-2 4-5 7-7 24-23 64-62 125-62 37 0 79 15 123 43 21 14 39 20 62 28 16 5 34 11 58 22 22 9 49 26 48 53zm-13-100c-4-2-8-4-13-6-22-9-39-15-53-20 8-16 13-35 13-56 1-51-25-93-58-93s-60 41-61 92v5c-21-9-41-16-60-20v-6c-2-93 55-170 127-172s133 72 135 165c1 42-10 81-30 111z"></path></symbol><symbol viewBox="0 0 1000 1000" id="icon-platform--mac"><path d="M556 778zM938 0H63C28 0 0 28 0 62v876c0 34 28 62 63 62h875c34 0 62-28 62-62V62c0-34-28-62-62-62zM188 219c0-18 14-32 31-32s31 14 31 32v62c0 17-14 31-31 31s-31-14-31-31v-62zm750 719H571c-6-42-10-84-13-125-19 2-38 3-58 3-130 0-256-47-354-133-15-13-16-35-3-50s35-16 50-3c84 75 194 116 307 116 19 0 37-1 55-3-2-116 7-207 7-209 1-8-2-17-8-24s-14-10-23-10h-93c2-34 5-92 15-157 18-123 51-220 94-281h391v875zM781 312c-17 0-31-14-31-31v-62c0-18 14-32 31-32s32 14 32 32v62c0 17-14 31-32 31zM528 816zm-28 0zm26-71zm-13 1zm344-113c-13-15-35-16-50-3-70 62-158 102-252 113 1 22 2 46 3 70 109-12 213-57 296-130 15-13 16-36 3-50zM558 813c-4 1-9 1-13 1 4 0 9 0 13-1zm-15 2z"></path></symbol><symbol viewBox="0 0 1000 1000" id="icon-platform--mobile"><path d="M667 750H292V167h375zM479 917c-34 0-62-28-62-63 0-34 28-62 62-62 35 0 63 28 63 62 0 35-28 63-63 63zM646 42H313c-58 0-105 46-105 104v708c0 58 47 104 105 104h333c57 0 104-46 104-104V146c0-58-47-104-104-104z"></path></symbol><symbol viewBox="0 0 1000 1000" id="icon-platform--unknown"><path d="M500 1000c276 0 500-224 500-500S776 0 500 0 0 224 0 500s224 500 500 500zm0-906c224 0 406 182 406 406S724 906 500 906 94 724 94 500 276 94 500 94zm228 493 22 75-427 125-21-75zM250 312c0-34 28-62 63-62s62 28 62 62c0 35-28 63-62 63s-63-28-63-63zm375 0c0-34 28-62 63-62s62 28 62 62c0 35-28 63-62 63s-63-28-63-63z"></path></symbol><symbol viewBox="0 0 1000 1000" id="icon-platform--windows"><path d="M125 500V281l250-56v269l-250 6zm688-375v362l-375 7V219l375-94zM125 544h250v281l-250-50V544zm688 6v363l-375-82V544l375 6z"></path></symbol><symbol viewBox="0 0 1000 1000" id="icon-play"><path d="M375 687V312l313 188-313 187zM500 56C256 56 56 256 56 500s200 444 444 444 444-200 444-444S744 56 500 56z"></path></symbol><symbol viewBox="0 0 1000 1000" id="icon-preview"><path d="M500 375c33 0 63 12 88 37s37 55 37 88-12 62-37 87-55 38-88 38-62-13-87-38-38-54-38-87 13-63 38-88 54-37 87-37zm0 333c58 0 108-21 146-62 42-42 62-92 62-146s-20-108-62-146c-42-42-92-62-146-62s-108 20-146 62c-41 42-62 92-62 146s21 108 62 146c38 41 88 62 146 62zm0-521c104 0 196 30 279 88s142 133 179 225c-37 92-95 171-179 225s-175 87-279 87-196-29-279-87S79 592 42 500c37-92 95-171 179-225s175-88 279-88z"></path></symbol><symbol viewBox="0 0 1000 1000" id="icon-qq"><path d="M133 564c24-57 57-100 82-109 0-33 6-54 17-71 0-1-3-15 6-32 7-150 104-269 262-269s255 119 262 269c9 17 6 31 6 32 11 17 17 38 17 71 25 9 58 52 83 110 31 73 36 143 11 156-17 8-44-13-70-49-10 40-35 78-70 108 37 13 61 36 61 61 0 42-65 76-146 76-74 0-133-28-145-63h-18c-12 35-71 63-145 63-81 0-146-34-146-76 0-25 24-48 61-61-35-30-60-68-70-108-26 36-53 57-70 49-25-13-20-83 12-157z"></path></symbol><symbol viewBox="0 0 1000 1000" id="icon-quote"><path d="m625 750 63-188H563V250h250v312l-63 188H625zm-375 0 63-188H188V250h250v312l-63 188H250z"></path></symbol><symbol viewBox="0 0 1000 1000" id="icon-refresh"><path d="M875 406H594l105-105c-53-53-124-82-199-82s-146 29-199 82-82 124-82 199 29 146 82 199 124 82 199 82 146-29 199-82l13-14 70 62c-68 78-169 128-282 128-207 0-375-168-375-375s168-375 375-375c104 0 197 42 265 110l110-110v281z"></path></symbol><symbol viewBox="0 0 1000 1000" id="icon-reply"><path d="M417 354c125 21 241 71 312 154 75 84 121 184 146 305-100-142-250-213-458-213v171L125 479l292-292v167z"></path></symbol><symbol viewBox="0 0 1000 1000" id="icon-schedule--fill"><path d="M794 206C713 125 613 87 500 87s-219 38-294 119C125 287 88 387 88 500s37 219 118 294c82 81 182 119 294 119s219-38 294-119c81-82 119-182 119-294s-32-219-119-294zm-75 506L450 531V212h81v269l238 163c6 0-50 68-50 68z"></path></symbol><symbol viewBox="0 0 1000 1000" id="icon-schedule"><path d="M521 292v220l187 113-33 54-217-133V296h63zm-21 541c92 0 171-33 233-100 67-66 100-146 100-233 0-92-33-171-100-233S588 167 500 167s-171 33-233 100-100 145-100 233c0 92 33 171 100 233 62 67 141 100 233 100zm0-750c117 0 213 42 296 121s121 179 121 296-42 212-121 296-179 121-296 121-212-42-296-121S83 617 83 500s42-213 121-296S383 83 500 83z"></path></symbol><symbol viewBox="0 0 1000 1000" id="icon-search"><path d="M408 596c50 0 96-17 134-54s54-80 54-134c0-50-17-96-54-133s-80-54-134-54-95 16-133 54-54 79-54 133c0 50 17 96 54 134s79 54 133 54zm250-13 209 213-67 67-213-205v-33l-4-13c-50 42-104 63-175 63-75 0-137-25-191-79s-80-117-80-192 25-142 80-192 116-79 191-79 138 25 192 79 79 117 79 192c0 67-21 121-62 171l12 4h29z"></path></symbol><symbol viewBox="0 0 1000 1000" id="icon-security"><path d="m500 83 333 167v212c0 205-141 409-333 455-192-46-333-250-333-455V250L500 83zm0 417v329c138-42 229-162 250-329H500zm0 0V167L250 287v213h250z"></path></symbol><symbol viewBox="0 0 1000 1000" id="icon-send"><path d="m125 875 750-375-750-375v294l531 81-531 81v294z"></path></symbol><symbol viewBox="0 0 1000 1000" id="icon-settings"><path d="M500 646c0-81-65-146-146-146 81 0 146-65 146-146 0 81 65 146 146 146-81 0-146 65-146 146zm310-106c1-13 3-26 3-40l-3-42 88-68c7-6 10-17 5-26l-84-144c-5-10-16-13-25-10l-104 42c-22-16-44-30-70-41l-16-110c-1-10-10-18-21-18H417c-11 0-19 8-21 18l-16 110c-26 11-48 25-70 41l-104-42c-9-3-20 0-25 10L98 364c-6 9-3 20 5 26l87 68c-1 14-2 28-2 42s1 27 2 40l-87 70c-8 6-11 17-5 26l83 144c5 10 16 13 25 10l104-43c22 17 44 31 70 42l16 110c2 10 10 18 21 18h166c11 0 20-8 21-18l16-110c26-11 48-25 70-42l104 43c9 3 20 0 25-10l84-144c5-9 2-20-5-26l-88-70z"></path></symbol><symbol viewBox="0 0 1000 1000" id="icon-shrink"><path d="M563 437h312L750 325l169-163-81-81-163 169-112-125v312zm0 125v313l112-125 163 169 81-82-169-162 125-113H563zm-125 0H125l125 113L81 837l82 82 162-169 113 125V562zm0-125V125L325 250 163 81l-82 81 169 163-125 112h313z"></path></symbol><symbol viewBox="0 0 1000 1000" id="icon-sliders"><path d="M938 250v62H438v32c0 18-13 31-32 31H219c-19 0-31-13-31-31v-32H63v-62h125v-31c0-19 12-32 31-32h187c19 0 32 13 32 32v31h500zM813 469c0-19-13-32-32-32H594c-19 0-31 13-31 32v31H63v62h500v32c0 18 12 31 31 31h187c19 0 32-13 32-31v-32h125v-62H813v-31zM500 719c0-19-12-32-31-32H281c-18 0-31 13-31 32v31H63v62h187v32c0 19 13 31 31 31h188c19 0 31-12 31-31v-32h438v-62H500v-31z"></path></symbol><symbol viewBox="0 0 1000 1000" id="icon-stack"><path d="M1000 312 500 62 0 312l500 250 500-250zM500 145l334 167-334 167-334-167 334-167zm400 305 100 50-500 250L0 500l100-50 400 200zm0 187 100 50-500 251L0 687l100-50 400 200z"></path></symbol><symbol viewBox="0 0 1000 1000" id="icon-star--outline"><path d="m969 394-325-44L500 56 356 350 31 394l232 231-57 319 288-150 287 150-56-319 244-231zM500 719 294 831l37-231-162-163 231-31 100-206 100 206 231 31-162 163 37 231-206-112z"></path></symbol><symbol viewBox="0 0 1000 1000" id="icon-star"><path d="m969 394-325-44L500 56 356 350 31 394l232 231-57 319 288-150 287 150-56-319 244-231z"></path></symbol><symbol viewBox="0 0 1000 1000" id="icon-statistics"><path d="M938 875H63V125h62v687h125V437h188v375h62V250h188v562h62V562h188v313z"></path></symbol><symbol viewBox="0 0 1000 1000" id="icon-stopwatch"><path d="M474 300c-196.34 0-355.5 134.31-355.5 300S277.66 900 474 900s355.5-134.31 355.5-300H474zm-59.14-96.92c-.07-1-.11-2-.11-3.08V100h-118.5C263.53 100 237 77.61 237 50s26.53-50 59.25-50h355.5C684.47 0 711 22.39 711 50s-26.53 50-59.25 50h-118.5v100c0 1 0 2.06-.11 3.08C767.06 227.65 948 396 948 600c0 220.91-212.22 400-474 400S0 820.91 0 600c0-204 180.99-372.35 414.86-396.92z"></path></symbol><symbol viewBox="0 0 1000 1000" id="icon-tag"><path d="M219 281c-38 0-63-31-63-69s32-62 63-62c37 0 69 31 69 62-7 44-32 69-69 69zm687 200L519 87c-19-12-38-25-63-25H150c-44 0-87 44-87 88v306c0 25 12 44 25 63l393 394c19 12 38 25 63 25s44-13 62-25l307-307c18-19 25-37 25-62s-13-50-32-63z"></path></symbol><symbol viewBox="0 0 1000 1000" id="icon-twitter"><path d="M936 250c-32 15-67 24-103 29 37-22 65-57 79-99-35 20-73 35-114 43-33-36-79-56-131-56-98 0-178 80-178 178 0 15 1 28 4 41-148-7-280-79-368-186-15 26-24 57-24 89 0 62 31 117 79 148-29 0-57-8-81-20v1c0 87 62 159 144 175-15 4-31 7-48 7-11 0-22-2-33-4 23 71 88 123 167 124-61 49-138 77-222 77-14 0-29-1-43-2 79 50 174 80 274 80 329 0 509-273 509-509v-23c35-25 65-57 89-93z"></path></symbol><symbol viewBox="0 0 1000 1000" id="icon-unordered_list"><path d="M313 187h625v125H313V187zm0 375V437h625v125H313zm0 250V687h625v125H313zM144 687c19 0 31 7 44 19s18 25 18 44-6 31-18 44c-13 12-32 18-44 18-19 0-31-6-44-18s-19-25-19-44 7-31 19-44c13-12 31-19 44-19zm0-500c19 0 31 7 44 19s18 25 18 44-6 31-18 44-32 18-44 18c-19 0-31-6-44-18s-19-25-19-44 7-31 19-44 31-19 44-19zm0 250c19 0 31 7 44 19s18 25 18 44-6 31-18 44c-13 12-32 18-44 18-19 0-31-6-44-18s-19-25-19-44 7-31 19-44c13-12 31-19 44-19z"></path></symbol><symbol viewBox="0 0 1000 1000" id="icon-upload"><path d="M375 750V437H188l312-312 313 312H625v313H375zM188 875v-63h625v63H188z"></path></symbol><symbol viewBox="0 0 1000 1000" id="icon-usb"><path d="M494.1 62.7c-38.4 0-75.9.2-113.1 0-11.7 0-13.4 7.6-13.4 16.7v204h126.5V62.7zm-35.8 118.5c0 6.6-5.3 12-11.9 12h-31.3c-6.6 0-11.9-5.3-11.9-12v-16.3c0-6.6 5.3-11.9 11.9-11.9h31.3c6.6 0 11.9 5.3 11.9 11.9v16.3zM632 77.5c0-11.3-5.9-15-16.9-15-28.6.4-57.1.2-85.7.2h-24.1v220.8H632v-206zm-35.8 103.7c0 6.6-5.3 12-12 12H553c-6.6 0-11.9-5.3-11.9-12v-16.3c0-6.6 5.3-11.9 11.9-11.9h31.2c6.7 0 12 5.3 12 11.9v16.3zm73.6 110.1c-113.2-.4-226.4 0-339.6 0-26.2 0-35.4 9.6-35.4 35.8v577.3c0 23.8 9.3 33.1 33.1 33.1h342.9c24.8 0 33.8-8.9 33.8-33.8V326.4c0-25.1-9.3-35.1-34.8-35.1zm9.3 576.7c0 21.5-7.6 29.5-29.5 29.5H349.4c-21.2 0-29.1-8-29.1-28.8v-15.2c0 20.8 8 28.8 29.1 28.8h300.2c21.9 0 29.5-8 29.5-29.5V868z"></path></symbol><symbol viewBox="0 0 1000 1000" id="icon-user--multiple"><path d="M667 542c-12 0-26 0-41 2 49 35 82 81 82 143v105h250V687c0-97-194-145-291-145zm-334 0c-97 0-291 48-291 145v105h583V687c0-97-195-145-292-145zm0-84c70 0 125-56 125-125s-55-125-125-125c-69 0-125 56-125 125s56 125 125 125zm334 0c69 0 125-56 125-125s-56-125-125-125-125 56-125 125 56 125 125 125z"></path></symbol><symbol viewBox="0 0 1000 1000" id="icon-user"><path d="M500 187c88 0 156 69 156 157s-68 156-156 156-156-69-156-156 69-157 156-157zm0 388c175 0 313 69 313 156v81H188v-81c0-81 137-156 312-156z"></path></symbol><symbol viewBox="0 0 1000 1000" id="icon-vote--down"><path d="M750 562h125V187H750v375zM600 187H294c-31 0-50 0-63 25L131 450c-6 6-6 6-6 19v68c0 32 31 88 69 88h212l-31 144v6c0 12 6 25 13 31l37 38 231-225c13-13 32-32 32-50V225c0-38-50-38-88-38z"></path></symbol><symbol viewBox="0 0 1000 1000" id="icon-vote--up"><path d="M875 469c0-44-31-94-69-94H594l31-144v-6c0-13-6-25-12-31l-38-38-231 225c-13 13-31 31-31 50v344c0 37 50 37 87 37h306c32 0 50 0 63-25l106-231v-87zM125 812h125V437H125v375z"></path></symbol><symbol viewBox="0 0 1000 1000" id="icon-warning"><path d="M542 583V417h-84v166h84zm0 167v-83h-84v83h84zM42 917 500 83l458 834H42z"></path></symbol><symbol viewBox="0 0 1000 1000" id="icon-web"><path d="M694 562c6 0 6-31 6-62l-6-63h150c6 0 12 32 12 63s-6 62-12 62H694zm-81 282c25-50 43-94 62-157h131c-43 63-112 125-193 157zm-13-282H400c-6 0-6-31-6-62s0-63 6-63h206c7 0 7 32 7 63s-7 62-13 62zM500 863c-37-57-62-113-81-176h169c-19 63-50 119-88 176zM325 312H200c44-62 106-125 188-156-25 50-50 94-63 156zM200 687h125c19 63 38 107 63 157-82-32-150-94-188-157zm-37-125c-7 0-13-31-13-62s6-63 13-63h143v63s0 62 7 62H163zm337-425c38 57 69 113 81 175H419c19-62 44-118 81-175zm300 175H669c-13-62-31-106-63-156 88 31 157 94 194 156zM500 62C256 62 63 262 63 500c0 244 193 438 437 438s438-194 438-438S744 62 500 62z"></path></symbol><symbol viewBox="0 0 1000 1000" id="icon-wechat"><path d="M396 167C223 167 83 279 83 417c0 78 45 148 116 194l-32 97 104-62c37 13 78 21 121 21-11-27-17-55-17-84 0-138 130-250 292-250 8 0 16 0 23 2-42-98-157-168-294-168zM271 271c23 0 42 19 42 41 0 23-19 42-42 42s-42-19-42-42c0-22 19-41 42-41zm208 0c23 0 42 19 42 41 0 23-19 42-42 42s-41-19-41-42c0-22 18-41 41-41zm188 104c-138 0-250 93-250 208s112 209 250 209c28 0 54-4 79-11l87 52-25-78c65-38 109-100 109-172 0-115-112-208-250-208zm-84 104c23 0 42 19 42 42s-19 41-42 41-41-18-41-41 18-42 41-42zm167 0c23 0 42 19 42 42s-19 41-42 41-42-18-42-41 19-42 42-42z"></path></symbol><symbol viewBox="0 0 1000 1000" id="icon-wrench"><path d="M900 750 525 429c8-17 17-33 21-54 4-17 8-38 8-58 0-34-4-63-17-92s-29-54-50-75c-20-21-45-38-75-50s-58-17-91-17c-13 0-25 0-34 4s-20 5-33 9l138 137c8 9 12 21 12 38s-4 25-12 37l-84 84c-8 8-20 12-37 12s-29-4-38-12L96 254c-4 13-4 21-8 33s-5 25-5 34c0 33 5 62 17 91s29 55 50 75 46 38 75 50c29 13 58 17 92 17 21 0 41-4 58-8s38-13 50-21l321 375c8 13 21 17 33 17s25-4 38-17l83-83c8-9 17-21 12-38 5-8-4-21-12-29z"></path></symbol></svg>